<svg width="798" height="563" viewBox="0 0 798 563" fill="none" xmlns="http://www.w3.org/2000/svg">
<path fill-rule="evenodd" clip-rule="evenodd" d="M0.187948 2.55638C1.3762 2.6624 0.960455 1.49621 2.16304 1.60383C2.30958 1.61668 2.06109 1.85924 3.51375 2.85355C8.67611 6.39229 8.6586 6.24129 13.848 9.85874C16.6196 11.7928 16.5224 11.7237 18.5708 13.1549C40.5359 28.5066 229.871 160.836 292.276 206.293C307.644 217.488 787.226 555.15 795.464 561.987C797.853 559.662 797.485 559.131 797.485 490.928C797.485 2.1436 797.562 1.95722 796.844 1.12515C794.993 -1.01609 79.8119 1.10105 3.81002 0.000718317C0.473043 -0.0474715 0.372716 2.34435 0.187948 2.55638Z" fill="#FCE902"/>
<path fill-rule="evenodd" clip-rule="evenodd" d="M0.188621 2.55639C-0.128352 46.8942 0.0404838 46.7529 0.0850831 556.787C0.0850831 561.513 0.569307 562.351 5.34461 562.354C68.1658 562.398 784.718 562.899 790.616 562.451C791.005 562.42 790.976 562.416 795.465 561.987C787.227 555.15 307.645 217.488 292.277 206.293C229.872 160.836 40.5366 28.5066 18.5715 13.1549C16.5231 11.7237 16.6202 11.7928 13.8487 9.85874C8.65927 6.2413 8.67678 6.39229 3.51442 2.85356C2.06176 1.85924 2.31026 1.61669 2.16371 1.60383C0.961128 1.49621 1.37687 2.6624 0.188621 2.55639Z" fill="#008F4B"/>
<path fill-rule="evenodd" clip-rule="evenodd" d="M145.333 83.3659C145.6 83.6395 145.866 83.9122 146.134 84.1858C145.935 84.3665 146.442 84.8064 146.244 84.9861C144.314 86.7384 144.092 86.22 141.961 87.7287C117.425 105.1 117.376 105.608 117.563 106.841C117.727 107.929 126.307 134.532 126.796 135.782C126.887 136.015 129.081 141.625 125.155 138.438C120.309 134.504 100.079 120.106 99.4537 119.89C95.9047 118.668 71.0949 140.103 69.7075 139.46C67.9494 138.645 69.3358 138.105 70.6045 134.681C71.4185 132.484 78.7324 112.737 79.4614 106.751C79.8249 103.771 49.8965 84.8735 49.875 84.098C49.8361 82.6999 83.9698 84.1022 86.1313 83.3638C88.7137 82.481 96.2621 54.5253 96.9553 51.9593C97.0239 51.7052 98.4543 46.409 99.4946 49.892C100.266 52.4735 107.422 76.4289 109.583 82.0215C110.294 83.8616 114.087 83.9194 145.333 83.3659Z" fill="#ED1C23"/>
</svg>
