<svg width="821" height="562" viewBox="0 0 821 562" fill="none" xmlns="http://www.w3.org/2000/svg">
<rect width="257" height="562" fill="black"/>
<rect width="564" height="562" transform="translate(257)" fill="#C8102E"/>
<path d="M404.703 314V245.281H418.203L446.328 291.172V245.281H459.219V314H445.297L417.594 269.188V314H404.703ZM473.938 314V245.281H524.891V256.906H487.812V272.141H522.312V283.719H487.812V302.422H526.203V314H473.938ZM569.938 288.734V277.156H599.844V304.531C596.938 307.344 592.719 309.828 587.188 311.984C581.688 314.109 576.109 315.172 570.453 315.172C563.266 315.172 557 313.672 551.656 310.672C546.312 307.641 542.297 303.328 539.609 297.734C536.922 292.109 535.578 286 535.578 279.406C535.578 272.25 537.078 265.891 540.078 260.328C543.078 254.766 547.469 250.5 553.25 247.531C557.656 245.25 563.141 244.109 569.703 244.109C578.234 244.109 584.891 245.906 589.672 249.5C594.484 253.062 597.578 258 598.953 264.312L585.172 266.891C584.203 263.516 582.375 260.859 579.688 258.922C577.031 256.953 573.703 255.969 569.703 255.969C563.641 255.969 558.812 257.891 555.219 261.734C551.656 265.578 549.875 271.281 549.875 278.844C549.875 287 551.688 293.125 555.312 297.219C558.938 301.281 563.688 303.312 569.562 303.312C572.469 303.312 575.375 302.75 578.281 301.625C581.219 300.469 583.734 299.078 585.828 297.453V288.734H569.938ZM609.875 280.062C609.875 273.062 610.922 267.188 613.016 262.438C614.578 258.938 616.703 255.797 619.391 253.016C622.109 250.234 625.078 248.172 628.297 246.828C632.578 245.016 637.516 244.109 643.109 244.109C653.234 244.109 661.328 247.25 667.391 253.531C673.484 259.812 676.531 268.547 676.531 279.734C676.531 290.828 673.516 299.516 667.484 305.797C661.453 312.047 653.391 315.172 643.297 315.172C633.078 315.172 624.953 312.062 618.922 305.844C612.891 299.594 609.875 291 609.875 280.062ZM624.172 279.594C624.172 287.375 625.969 293.281 629.562 297.312C633.156 301.312 637.719 303.312 643.25 303.312C648.781 303.312 653.312 301.328 656.844 297.359C660.406 293.359 662.188 287.375 662.188 279.406C662.188 271.531 660.453 265.656 656.984 261.781C653.547 257.906 648.969 255.969 643.25 255.969C637.531 255.969 632.922 257.938 629.422 261.875C625.922 265.781 624.172 271.688 624.172 279.594Z" fill="white"/>
</svg>
