<svg width="822" height="559" viewBox="0 0 822 559" fill="none" xmlns="http://www.w3.org/2000/svg">
<path d="M822 0H0V43H822V0Z" fill="#009B3A"/>
<path d="M822 43H0V86H822V43Z" fill="#FFDF00"/>
<path d="M822 86H0V129H822V86Z" fill="#009B3A"/>
<path d="M822 129H0V172H822V129Z" fill="#FFDF00"/>
<path d="M822 172H0V215H822V172Z" fill="#009B3A"/>
<path d="M822 215H0V258H822V215Z" fill="#FFDF00"/>
<path d="M822 258H0V301H822V258Z" fill="#009B3A"/>
<path d="M822 301H0V344H822V301Z" fill="#FFDF00"/>
<path d="M822 344H0V387H822V344Z" fill="#009B3A"/>
<path d="M822 387H0V430H822V387Z" fill="#FFDF00"/>
<path d="M822 430H0V473H822V430Z" fill="#009B3A"/>
<path d="M822 473H0V516H822V473Z" fill="#FFDF00"/>
<path d="M822 516H0V559H822V516Z" fill="#009B3A"/>
<rect width="354" height="301" fill="#001781"/>
<path d="M177 76L185.981 103.639H215.042L191.531 120.721L200.511 148.361L177 131.279L153.489 148.361L162.469 120.721L138.958 103.639H168.019L177 76Z" fill="white"/>
<path d="M114.943 201.545V219H112.83V203.761H112.727L108.466 206.591V204.443L112.83 201.545H114.943ZM125.861 219.239C124.736 219.239 123.733 219.045 122.852 218.659C121.977 218.273 121.281 217.736 120.764 217.048C120.253 216.355 119.974 215.551 119.929 214.636H122.077C122.122 215.199 122.315 215.685 122.656 216.094C122.997 216.497 123.443 216.81 123.994 217.031C124.545 217.253 125.156 217.364 125.827 217.364C126.577 217.364 127.241 217.233 127.821 216.972C128.401 216.71 128.855 216.347 129.185 215.881C129.514 215.415 129.679 214.875 129.679 214.261C129.679 213.619 129.52 213.054 129.202 212.565C128.884 212.071 128.418 211.685 127.804 211.406C127.19 211.128 126.44 210.989 125.554 210.989H124.156V209.114H125.554C126.247 209.114 126.855 208.989 127.378 208.739C127.906 208.489 128.318 208.136 128.614 207.682C128.915 207.227 129.065 206.693 129.065 206.08C129.065 205.489 128.935 204.974 128.673 204.537C128.412 204.099 128.043 203.759 127.565 203.514C127.094 203.27 126.537 203.148 125.895 203.148C125.293 203.148 124.724 203.259 124.19 203.48C123.662 203.696 123.23 204.011 122.895 204.426C122.56 204.835 122.378 205.33 122.349 205.909H120.304C120.338 204.994 120.614 204.193 121.131 203.506C121.648 202.812 122.324 202.273 123.159 201.886C124 201.5 124.923 201.307 125.929 201.307C127.009 201.307 127.935 201.526 128.707 201.963C129.48 202.395 130.074 202.966 130.489 203.676C130.903 204.386 131.111 205.153 131.111 205.977C131.111 206.96 130.852 207.798 130.335 208.491C129.824 209.185 129.128 209.665 128.247 209.932V210.068C129.349 210.25 130.21 210.719 130.83 211.474C131.449 212.224 131.759 213.153 131.759 214.261C131.759 215.21 131.5 216.062 130.983 216.818C130.472 217.568 129.773 218.159 128.886 218.591C128 219.023 126.991 219.239 125.861 219.239ZM146.972 219.273C145.881 219.273 144.918 218.997 144.082 218.446C143.247 217.889 142.594 217.105 142.122 216.094C141.651 215.077 141.415 213.875 141.415 212.489C141.415 211.114 141.651 209.92 142.122 208.909C142.594 207.898 143.25 207.116 144.091 206.565C144.932 206.014 145.903 205.739 147.006 205.739C147.858 205.739 148.531 205.881 149.026 206.165C149.526 206.443 149.906 206.761 150.168 207.119C150.435 207.472 150.642 207.761 150.79 207.989H150.96V201.545H152.972V219H151.028V216.989H150.79C150.642 217.227 150.432 217.528 150.159 217.892C149.886 218.25 149.497 218.571 148.991 218.855C148.486 219.134 147.813 219.273 146.972 219.273ZM147.244 217.466C148.051 217.466 148.733 217.256 149.29 216.835C149.847 216.409 150.27 215.821 150.56 215.071C150.849 214.315 150.994 213.443 150.994 212.455C150.994 211.477 150.852 210.622 150.568 209.889C150.284 209.151 149.864 208.577 149.307 208.168C148.75 207.753 148.063 207.545 147.244 207.545C146.392 207.545 145.682 207.764 145.114 208.202C144.551 208.634 144.128 209.222 143.844 209.966C143.565 210.705 143.426 211.534 143.426 212.455C143.426 213.386 143.568 214.233 143.852 214.994C144.142 215.75 144.568 216.352 145.131 216.801C145.699 217.244 146.403 217.466 147.244 217.466ZM162.423 219.273C161.162 219.273 160.074 218.994 159.159 218.438C158.25 217.875 157.548 217.091 157.054 216.085C156.565 215.074 156.321 213.898 156.321 212.557C156.321 211.216 156.565 210.034 157.054 209.011C157.548 207.983 158.236 207.182 159.116 206.608C160.003 206.028 161.037 205.739 162.219 205.739C162.901 205.739 163.574 205.852 164.239 206.08C164.903 206.307 165.509 206.676 166.054 207.188C166.599 207.693 167.034 208.364 167.358 209.199C167.682 210.034 167.844 211.062 167.844 212.284V213.136H157.753V211.398H165.798C165.798 210.659 165.651 210 165.355 209.42C165.065 208.841 164.651 208.384 164.111 208.048C163.577 207.713 162.946 207.545 162.219 207.545C161.418 207.545 160.724 207.744 160.139 208.142C159.56 208.534 159.114 209.045 158.801 209.676C158.489 210.307 158.332 210.983 158.332 211.705V212.864C158.332 213.852 158.503 214.69 158.844 215.378C159.19 216.06 159.67 216.58 160.284 216.938C160.898 217.29 161.611 217.466 162.423 217.466C162.952 217.466 163.429 217.392 163.855 217.244C164.287 217.091 164.659 216.864 164.972 216.562C165.284 216.256 165.526 215.875 165.696 215.42L167.639 215.966C167.435 216.625 167.091 217.205 166.608 217.705C166.125 218.199 165.528 218.585 164.818 218.864C164.108 219.136 163.31 219.273 162.423 219.273ZM177.653 219V205.909H179.597V207.955H179.767C180.04 207.256 180.48 206.713 181.088 206.327C181.696 205.935 182.426 205.739 183.278 205.739C184.142 205.739 184.861 205.935 185.435 206.327C186.014 206.713 186.466 207.256 186.79 207.955H186.926C187.261 207.278 187.764 206.741 188.435 206.344C189.105 205.94 189.909 205.739 190.847 205.739C192.017 205.739 192.974 206.105 193.719 206.838C194.463 207.565 194.835 208.699 194.835 210.239V219H192.824V210.239C192.824 209.273 192.56 208.582 192.031 208.168C191.503 207.753 190.881 207.545 190.165 207.545C189.244 207.545 188.531 207.824 188.026 208.381C187.52 208.932 187.267 209.631 187.267 210.477V219H185.222V210.034C185.222 209.29 184.98 208.69 184.497 208.236C184.014 207.776 183.392 207.545 182.631 207.545C182.108 207.545 181.619 207.685 181.165 207.963C180.716 208.241 180.352 208.628 180.074 209.122C179.801 209.611 179.665 210.176 179.665 210.818V219H177.653ZM202.365 219.307C201.536 219.307 200.783 219.151 200.107 218.838C199.43 218.52 198.893 218.062 198.496 217.466C198.098 216.864 197.899 216.136 197.899 215.284C197.899 214.534 198.047 213.926 198.342 213.46C198.638 212.989 199.033 212.619 199.527 212.352C200.021 212.085 200.567 211.886 201.163 211.756C201.766 211.619 202.371 211.511 202.979 211.432C203.774 211.33 204.419 211.253 204.913 211.202C205.413 211.145 205.777 211.051 206.004 210.92C206.237 210.79 206.354 210.562 206.354 210.239V210.17C206.354 209.33 206.124 208.676 205.663 208.21C205.209 207.744 204.518 207.511 203.592 207.511C202.632 207.511 201.879 207.722 201.334 208.142C200.788 208.562 200.405 209.011 200.183 209.489L198.274 208.807C198.615 208.011 199.07 207.392 199.638 206.949C200.212 206.5 200.837 206.187 201.513 206.011C202.195 205.83 202.865 205.739 203.524 205.739C203.945 205.739 204.428 205.79 204.973 205.892C205.524 205.989 206.055 206.19 206.567 206.497C207.084 206.804 207.513 207.267 207.854 207.886C208.195 208.506 208.365 209.335 208.365 210.375V219H206.354V217.227H206.251C206.115 217.511 205.888 217.815 205.57 218.139C205.251 218.463 204.828 218.739 204.3 218.966C203.771 219.193 203.126 219.307 202.365 219.307ZM202.672 217.5C203.467 217.5 204.138 217.344 204.683 217.031C205.234 216.719 205.649 216.315 205.928 215.821C206.212 215.327 206.354 214.807 206.354 214.261V212.42C206.268 212.523 206.081 212.616 205.791 212.702C205.507 212.781 205.178 212.852 204.803 212.915C204.433 212.972 204.072 213.023 203.72 213.068C203.374 213.108 203.092 213.142 202.876 213.17C202.354 213.239 201.865 213.349 201.411 213.503C200.962 213.651 200.598 213.875 200.32 214.176C200.047 214.472 199.911 214.875 199.911 215.386C199.911 216.085 200.169 216.614 200.686 216.972C201.209 217.324 201.871 217.5 202.672 217.5ZM212.036 219V205.909H213.979V207.886H214.116C214.354 207.239 214.786 206.713 215.411 206.31C216.036 205.906 216.741 205.705 217.525 205.705C217.673 205.705 217.857 205.707 218.079 205.713C218.3 205.719 218.468 205.727 218.582 205.739V207.784C218.513 207.767 218.357 207.741 218.113 207.707C217.874 207.668 217.621 207.648 217.354 207.648C216.718 207.648 216.15 207.781 215.65 208.048C215.156 208.31 214.763 208.673 214.474 209.139C214.19 209.599 214.048 210.125 214.048 210.716V219H212.036ZM225.886 219.273C224.658 219.273 223.602 218.983 222.715 218.403C221.829 217.824 221.147 217.026 220.67 216.009C220.192 214.991 219.954 213.83 219.954 212.523C219.954 211.193 220.198 210.02 220.687 209.003C221.181 207.98 221.869 207.182 222.749 206.608C223.636 206.028 224.67 205.739 225.852 205.739C226.772 205.739 227.602 205.909 228.34 206.25C229.079 206.591 229.684 207.068 230.156 207.682C230.627 208.295 230.92 209.011 231.033 209.83H229.022C228.869 209.233 228.528 208.705 227.999 208.244C227.477 207.778 226.772 207.545 225.886 207.545C225.102 207.545 224.414 207.75 223.823 208.159C223.238 208.562 222.781 209.134 222.451 209.872C222.127 210.605 221.965 211.466 221.965 212.455C221.965 213.466 222.124 214.347 222.442 215.097C222.766 215.847 223.221 216.429 223.806 216.844C224.397 217.259 225.09 217.466 225.886 217.466C226.408 217.466 226.883 217.375 227.309 217.193C227.735 217.011 228.096 216.75 228.391 216.409C228.687 216.068 228.897 215.659 229.022 215.182H231.033C230.92 215.955 230.638 216.651 230.19 217.27C229.746 217.884 229.158 218.372 228.425 218.736C227.698 219.094 226.852 219.273 225.886 219.273ZM224.931 218.932H226.602L226.465 219.614C226.908 219.682 227.315 219.866 227.684 220.168C228.053 220.474 228.238 220.96 228.238 221.625C228.238 222.358 227.934 222.955 227.326 223.415C226.724 223.881 225.835 224.114 224.658 224.114L224.59 222.784C225.119 222.784 225.556 222.699 225.903 222.528C226.255 222.364 226.431 222.085 226.431 221.693C226.431 221.301 226.286 221.034 225.996 220.892C225.707 220.75 225.238 220.653 224.59 220.602L224.931 218.932ZM239.292 219.273C238.11 219.273 237.073 218.991 236.181 218.429C235.295 217.866 234.602 217.08 234.102 216.068C233.607 215.057 233.36 213.875 233.36 212.523C233.36 211.159 233.607 209.969 234.102 208.952C234.602 207.935 235.295 207.145 236.181 206.582C237.073 206.02 238.11 205.739 239.292 205.739C240.474 205.739 241.508 206.02 242.394 206.582C243.286 207.145 243.979 207.935 244.474 208.952C244.974 209.969 245.224 211.159 245.224 212.523C245.224 213.875 244.974 215.057 244.474 216.068C243.979 217.08 243.286 217.866 242.394 218.429C241.508 218.991 240.474 219.273 239.292 219.273ZM239.292 217.466C240.19 217.466 240.928 217.236 241.508 216.776C242.087 216.315 242.516 215.71 242.795 214.96C243.073 214.21 243.212 213.398 243.212 212.523C243.212 211.648 243.073 210.832 242.795 210.077C242.516 209.321 242.087 208.71 241.508 208.244C240.928 207.778 240.19 207.545 239.292 207.545C238.394 207.545 237.656 207.778 237.076 208.244C236.496 208.71 236.067 209.321 235.789 210.077C235.511 210.832 235.371 211.648 235.371 212.523C235.371 213.398 235.511 214.21 235.789 214.96C236.067 215.71 236.496 216.315 237.076 216.776C237.656 217.236 238.394 217.466 239.292 217.466Z" fill="white"/>
</svg>
