<svg width="798" height="562" viewBox="0 0 798 562" fill="none" xmlns="http://www.w3.org/2000/svg">
<g clip-path="url(#clip0_198_104)">
<rect width="798" height="562" fill="white"/>
<path fill-rule="evenodd" clip-rule="evenodd" d="M797.406 84.068C797.658 121.865 797.522 121.744 797.45 556.532C797.45 560.56 797.06 561.275 793.21 561.277C742.57 561.309 164.962 561.68 160.207 561.297C159.894 561.271 159.917 561.267 156.299 560.901C162.94 555.074 549.552 267.266 561.941 257.724C612.249 218.978 764.88 106.187 782.587 93.1015C784.238 91.8816 784.16 91.9405 786.394 90.292C790.577 87.2086 790.563 87.3374 794.725 84.3211C795.896 83.4736 795.696 83.2668 795.814 83.2559C796.783 83.1642 796.448 84.1583 797.406 84.068Z" fill="#D50032"/>
<path fill-rule="evenodd" clip-rule="evenodd" d="M0.531115 478.036C0.245515 440.241 0.381712 440.362 0.071598 5.59434C0.0683914 1.56593 0.458161 0.850794 4.30759 0.844394C54.9486 0.759258 632.57 -0.217351 637.325 0.160155C637.639 0.185874 637.615 0.190005 641.234 0.552161C634.598 6.38612 248.23 294.587 235.849 304.141C185.574 342.938 33.0385 455.884 15.3426 468.987C13.6923 470.209 13.7706 470.15 11.5377 471.801C7.35692 474.888 7.37093 474.759 3.21188 477.78C2.04155 478.629 2.24203 478.835 2.12391 478.846C1.15456 478.939 1.48891 477.945 0.531115 478.036Z" fill="#D50032"/>
<path fill-rule="evenodd" clip-rule="evenodd" d="M365.669 273.401C365.483 273.602 365.297 273.802 365.11 274.002C365.249 274.135 364.895 274.457 365.033 274.589C366.381 275.873 366.536 275.493 368.025 276.599C385.165 289.332 385.198 289.704 385.068 290.608C384.954 291.405 378.96 310.904 378.618 311.82C378.555 311.991 377.022 316.103 379.764 313.766C383.15 310.883 397.281 300.33 397.718 300.172C400.197 299.276 417.528 314.987 418.498 314.516C419.726 313.919 418.757 313.523 417.871 311.013C417.302 309.402 412.193 294.929 411.684 290.542C411.43 288.357 432.337 274.506 432.352 273.938C432.379 272.913 408.535 273.941 407.025 273.4C405.221 272.753 399.948 252.263 399.463 250.382C399.416 250.196 398.416 246.314 397.69 248.867C397.151 250.759 392.152 268.317 390.642 272.416C390.146 273.765 387.496 273.807 365.669 273.401Z" fill="#005AA5"/>
</g>
<defs>
<clipPath id="clip0_198_104">
<rect width="798" height="562" fill="white"/>
</clipPath>
</defs>
</svg>
