<svg width="822" height="559" viewBox="0 0 822 559" fill="none" xmlns="http://www.w3.org/2000/svg">
<path d="M822 0H0V70H822V0Z" fill="#009B3A"/>
<path d="M822 70H0V139H822V70Z" fill="#FFDF00"/>
<path d="M822 139H0V210H822V139Z" fill="#009B3A"/>
<path d="M822 210H0V279H822V210Z" fill="#FFDF00"/>
<path d="M822 279H0V348H822V279Z" fill="#009B3A"/>
<path d="M822 348H0V419H822V348Z" fill="#FFDF00"/>
<path d="M822 419H0V488H822V419Z" fill="#009B3A"/>
<path d="M822 488H0V559H822V488Z" fill="#FFDF00"/>
<path d="M331 0H0V281H331V0Z" fill="#0038A8"/>
<path fill-rule="evenodd" clip-rule="evenodd" d="M32 45L36.2496 59.1333H50L38.8752 67.8677L43.1248 82L32 73.2656L20.8752 82L25.1248 67.8677L14 59.1333H27.7513L32 45Z" fill="white"/>
<path fill-rule="evenodd" clip-rule="evenodd" d="M45.5 90L49.8676 104.133H64L52.5662 112.868L56.9338 127L45.5 118.266L34.0662 127L38.4338 112.868L27 104.133H41.1333L45.5 90Z" fill="white"/>
<path fill-rule="evenodd" clip-rule="evenodd" d="M82 45L86.2496 59.1333H100L88.8752 67.8677L93.1248 82L82 73.2656L70.8752 82L75.1248 67.8677L64 59.1333H77.7513L82 45Z" fill="white"/>
<path fill-rule="evenodd" clip-rule="evenodd" d="M95.5 102L99.6315 116.133H113L102.184 124.868L106.316 139L95.5 130.266L84.6842 139L88.8158 124.868L78 116.133H91.3693L95.5 102Z" fill="white"/>
<path fill-rule="evenodd" clip-rule="evenodd" d="M64 16L68.2496 30.5153H82L70.8752 39.4858L75.1248 54L64 45.0295L52.8752 54L57.1248 39.4858L46 30.5153H59.7513L64 16Z" fill="white"/>
</svg>
