<svg width="798" height="562" viewBox="0 0 798 562" fill="none" xmlns="http://www.w3.org/2000/svg">
<path d="M798 0H0V62H798V0Z" fill="#D50032"/>
<path d="M798 187H0V249H798V187Z" fill="white"/>
<path d="M798 62H0V124H798V62Z" fill="white"/>
<path d="M798 249H0V311H798V249Z" fill="#D50032"/>
<path d="M798 374H0V437H798V374Z" fill="#111111"/>
<path d="M798 124H0V187H798V124Z" fill="#111111"/>
<path d="M798 311H0V374H798V311Z" fill="white"/>
<path d="M798 437H0V498H798V437Z" fill="white"/>
<path d="M798 499H0V562H798V499Z" fill="#D50032"/>
<path d="M321 0H0V281H321V0Z" fill="#0038A8"/>
<path d="M160 59L174.593 103.914H221.819L183.613 131.672L198.206 176.586L160 148.828L121.794 176.586L136.387 131.672L98.1813 103.914H145.407L160 59Z" fill="white"/>
</svg>
