<svg width="821" height="562" viewBox="0 0 821 562" fill="none" xmlns="http://www.w3.org/2000/svg">
<rect width="821" height="112.4" fill="#009B3A"/>
<rect y="112.4" width="821" height="112.4" fill="#FFDF00"/>
<rect y="224.8" width="821" height="112.4" fill="#009B3A"/>
<rect y="337.2" width="821" height="112.4" fill="#FFDF00"/>
<rect y="449.6" width="821" height="112.4" fill="#009B3A"/>
<rect width="335" height="337" fill="#020092"/>
<path d="M81 28.5L90.4296 56.8303H120.944L96.2574 74.3394L105.687 102.67L81 85.1606L56.313 102.67L65.7426 74.3394L41.0556 56.8303H71.5704L81 28.5Z" fill="white"/>
<path d="M255 28.5L264.205 56.8303H293.993L269.894 74.3394L279.099 102.67L255 85.1606L230.901 102.67L240.106 74.3394L216.007 56.8303H245.795L255 28.5Z" fill="white"/>
<path d="M167.5 113L179.961 151.35H220.284L187.662 175.051L200.122 213.4L167.5 189.699L134.878 213.4L147.338 175.051L114.716 151.35H155.039L167.5 113Z" fill="white"/>
<path d="M81 226.5L90.4296 254.83H120.944L96.2574 272.339L105.687 300.67L81 283.161L56.313 300.67L65.7426 272.339L41.0556 254.83H71.5704L81 226.5Z" fill="white"/>
<path d="M255 226.5L264.205 254.83H293.993L269.894 272.339L279.099 300.67L255 283.161L230.901 300.67L240.106 272.339L216.007 254.83H245.795L255 226.5Z" fill="white"/>
</svg>
