<svg width="798" height="562" viewBox="0 0 798 562" fill="none" xmlns="http://www.w3.org/2000/svg">
<g clip-path="url(#clip0_198_133)">
<rect width="798" height="562" fill="white"/>
<path fill-rule="evenodd" clip-rule="evenodd" d="M797.483 206.656C797.671 234.806 797.569 234.716 797.516 558.536C797.516 561.537 797.225 562.069 794.358 562.071C756.642 562.095 326.452 562.371 322.911 562.086C322.678 562.066 322.695 562.063 320 561.791C324.946 557.451 612.887 343.097 622.113 335.991C659.581 307.134 773.258 223.129 786.446 213.384C787.675 212.475 787.617 212.519 789.281 211.291C792.397 208.995 792.386 209.091 795.486 206.844C796.358 206.213 796.209 206.059 796.297 206.051C797.019 205.983 796.769 206.723 797.483 206.656Z" fill="#FFDF00"/>
<path fill-rule="evenodd" clip-rule="evenodd" d="M0.391834 356.031C0.179125 327.882 0.280561 327.972 0.0495954 4.16665C0.0472073 1.16637 0.337499 0.633753 3.20447 0.628987C40.9208 0.565579 471.121 -0.161777 474.662 0.119381C474.895 0.138535 474.878 0.141612 477.573 0.411338C472.631 4.75634 184.872 219.402 175.652 226.518C138.208 255.413 24.6026 339.533 11.4231 349.292C10.194 350.201 10.2523 350.157 8.58933 351.387C5.47554 353.686 5.48598 353.591 2.38841 355.84C1.51677 356.472 1.66609 356.626 1.57811 356.634C0.856163 356.703 1.10518 355.963 0.391834 356.031Z" fill="#0057B8"/>
<circle cx="399.5" cy="280.5" r="94.5" fill="#FFDF00"/>
</g>
<defs>
<clipPath id="clip0_198_133">
<rect width="798" height="562" fill="white"/>
</clipPath>
</defs>
</svg>
